# Blender 4.0.1
# www.blender.org
o Solid_Material_0
v 0.326643 -0.075164 0.948814
v -0.387001 -0.075164 0.948814
v -0.607530 -0.652514 0.591992
v 0.903993 -0.431986 0.014642
v 0.903993 0.281658 0.014642
v 0.547171 0.502186 0.591992
v -0.030179 -1.009336 0.371464
v -0.030179 -1.009336 -0.342180
v 0.547171 -0.652514 -0.562708
v 0.547171 0.502186 0.591992
v -0.030179 0.859008 0.371464
v -0.607530 0.502186 0.591992
v 0.547171 -0.652514 -0.562708
v 0.326643 -0.075164 -0.919531
v 0.547171 0.502186 -0.562708
v -0.607530 -0.652514 0.591992
v -0.964352 -0.431986 0.014642
v -0.607530 -0.652514 -0.562708
v -0.607530 0.502186 0.591992
v -0.964352 0.281658 0.014642
v -0.964352 -0.431986 0.014642
v -0.387001 -0.075164 -0.919531
v 0.326643 -0.075164 -0.919531
v 0.547171 -0.652514 -0.562708
v -0.030179 0.859008 -0.342180
v -0.030179 0.859008 0.371464
v 0.547171 0.502186 0.591992
v -0.964352 0.281658 0.014642
v -0.607530 0.502186 0.591992
v -0.030179 0.859008 0.371464
v -0.387001 -0.075164 -0.919531
v -0.607530 -0.652514 -0.562708
v -0.964352 -0.431986 0.014642
v -0.030179 0.859008 -0.342180
v 0.547171 0.502186 -0.562708
v 0.326643 -0.075164 -0.919531
v 0.547171 -0.652514 0.591992
v 0.326643 -0.075164 0.948814
v -0.607530 -0.652514 0.591992
v -0.030179 -1.009336 0.371464
v 0.547171 -0.652514 0.591992
v 0.903993 -0.431986 0.014642
v 0.547171 0.502186 0.591992
v 0.326643 -0.075164 0.948814
v 0.547171 -0.652514 0.591992
v -0.030179 -1.009336 0.371464
v 0.547171 -0.652514 -0.562708
v 0.903993 -0.431986 0.014642
v 0.326643 -0.075164 0.948814
v 0.547171 0.502186 0.591992
v -0.607530 0.502186 0.591992
v -0.387001 -0.075164 0.948814
v 0.903993 -0.431986 0.014642
v 0.547171 -0.652514 -0.562708
v 0.547171 0.502186 -0.562708
v 0.903993 0.281658 0.014642
v -0.030179 -1.009336 0.371464
v -0.607530 -0.652514 0.591992
v -0.607530 -0.652514 -0.562708
v -0.030179 -1.009336 -0.342180
v -0.387001 -0.075164 0.948814
v -0.607530 0.502186 0.591992
v -0.964352 -0.431986 0.014642
v -0.607530 -0.652514 0.591992
v -0.607530 -0.652514 -0.562708
v -0.387001 -0.075164 -0.919531
v 0.547171 -0.652514 -0.562708
v -0.030179 -1.009336 -0.342180
v 0.547171 0.502186 -0.562708
v -0.030179 0.859008 -0.342180
v 0.547171 0.502186 0.591992
v 0.903993 0.281658 0.014642
v -0.607530 0.502186 -0.562708
v -0.964352 0.281658 0.014642
v -0.030179 0.859008 0.371464
v -0.030179 0.859008 -0.342180
v -0.607530 0.502186 -0.562708
v -0.387001 -0.075164 -0.919531
v -0.964352 -0.431986 0.014642
v -0.964352 0.281658 0.014642
v -0.607530 0.502186 -0.562708
v -0.030179 0.859008 -0.342180
v 0.326643 -0.075164 -0.919531
v -0.387001 -0.075164 -0.919531
vn -0.0000 -0.5257 0.8507
vn 0.8507 -0.0000 0.5257
vn 0.5257 -0.8507 -0.0000
vn -0.0000 0.5257 0.8507
vn 0.8507 -0.0000 -0.5257
vn -0.5257 -0.8507 -0.0000
vn -0.8507 -0.0000 0.5257
vn -0.0000 -0.5257 -0.8507
vn 0.5257 0.8507 -0.0000
vn -0.5257 0.8507 -0.0000
vn -0.8507 -0.0000 -0.5257
vn -0.0000 0.5257 -0.8507
s 0
f 1//1 2//1 3//1
f 4//2 5//2 6//2
f 7//3 8//3 9//3
f 10//4 11//4 12//4
f 13//5 14//5 15//5
f 16//6 17//6 18//6
f 19//7 20//7 21//7
f 22//8 23//8 24//8
f 25//9 26//9 27//9
f 28//10 29//10 30//10
f 31//11 32//11 33//11
f 34//12 35//12 36//12
f 37//1 38//1 39//1
f 37//1 39//1 40//1
f 41//2 42//2 43//2
f 41//2 43//2 44//2
f 45//3 46//3 47//3
f 45//3 47//3 48//3
f 49//4 50//4 51//4
f 49//4 51//4 52//4
f 53//5 54//5 55//5
f 53//5 55//5 56//5
f 57//6 58//6 59//6
f 57//6 59//6 60//6
f 61//7 62//7 63//7
f 61//7 63//7 64//7
f 65//8 66//8 67//8
f 65//8 67//8 68//8
f 69//9 70//9 71//9
f 69//9 71//9 72//9
f 73//10 74//10 75//10
f 73//10 75//10 76//10
f 77//11 78//11 79//11
f 77//11 79//11 80//11
f 81//12 82//12 83//12
f 81//12 83//12 84//12
