# Blender 4.0.2
# www.blender.org
o Circle
v 0.000000 0.000000 -7.500000
v -5.303301 0.000000 -5.303301
v -7.500000 0.000000 0.000000
v -5.303301 0.000000 5.303301
v 0.000000 0.000000 7.500000
v 5.303301 0.000000 5.303301
v 7.500000 0.000000 0.000000
v 5.303301 0.000000 -5.303301
v 0.000000 10.000000 -7.500000
v -5.303301 10.000000 -5.303301
v -7.500000 10.000000 0.000000
v -5.303301 10.000000 5.303301
v 0.000000 10.000000 7.500000
v 5.303301 10.000000 5.303301
v 7.500000 10.000000 0.000000
v 5.303301 10.000000 -5.303301
v 0.000000 0.000000 -6.417608
v -4.537934 0.000000 -4.537934
v -6.417608 0.000000 0.000000
v -4.537934 0.000000 4.537934
v 0.000000 0.000000 6.417608
v 4.537934 0.000000 4.537934
v 6.417608 0.000000 0.000000
v 4.537934 0.000000 -4.537934
v 0.000000 10.000000 -6.417608
v -4.537934 10.000000 -4.537934
v -6.417608 10.000000 0.000000
v -4.537934 10.000000 4.537934
v 0.000000 10.000000 6.417608
v 4.537934 10.000000 4.537934
v 6.417608 10.000000 0.000000
v 4.537934 10.000000 -4.537934
vn 0.9239 -0.0000 -0.3827
vn 0.3827 -0.0000 0.9239
vn -0.9239 -0.0000 0.3827
vn -0.3827 -0.0000 -0.9239
vn 0.3827 -0.0000 -0.9239
vn 0.9239 -0.0000 0.3827
vn -0.3827 -0.0000 0.9239
vn -0.9239 -0.0000 -0.3827
vn -0.0000 -1.0000 -0.0000
vn -0.0000 1.0000 -0.0000
vt 1.000000 0.500000
vt 0.853553 0.853553
vt 0.500000 0.000000
vt 0.853553 0.146447
vt 0.000000 0.500000
vt 0.146447 0.146447
vt 0.500000 1.000000
vt 0.146447 0.853553
s 0
f 7/1/1 8/2/1 16/2/1 15/1/1
f 5/3/2 6/4/2 14/4/2 13/3/2
f 3/5/3 4/6/3 12/6/3 11/5/3
f 1/7/4 2/8/4 10/8/4 9/7/4
f 8/2/5 1/7/5 9/7/5 16/2/5
f 6/4/6 7/1/6 15/1/6 14/4/6
f 4/6/7 5/3/7 13/3/7 12/6/7
f 2/8/8 3/5/8 11/5/8 10/8/8
f 23/1/3 31/1/3 32/2/3 24/2/3
f 21/3/4 29/3/4 30/4/4 22/4/4
f 19/5/1 27/5/1 28/6/1 20/6/1
f 17/7/2 25/7/2 26/8/2 18/8/2
f 24/2/7 32/2/7 25/7/7 17/7/7
f 22/4/8 30/4/8 31/1/8 23/1/8
f 20/6/5 28/6/5 29/3/5 21/3/5
f 18/8/6 26/8/6 27/5/6 19/5/6
f 2/8/9 1/7/9 17/7/9 18/8/9
f 3/5/9 2/8/9 18/8/9 19/5/9
f 4/6/9 3/5/9 19/5/9 20/6/9
f 5/3/9 4/6/9 20/6/9 21/3/9
f 6/4/9 5/3/9 21/3/9 22/4/9
f 7/1/9 6/4/9 22/4/9 23/1/9
f 8/2/9 7/1/9 23/1/9 24/2/9
f 1/7/9 8/2/9 24/2/9 17/7/9
f 9/7/10 10/8/10 26/8/10 25/7/10
f 10/8/10 11/5/10 27/5/10 26/8/10
f 11/5/10 12/6/10 28/6/10 27/5/10
f 12/6/10 13/3/10 29/3/10 28/6/10
f 13/3/10 14/4/10 30/4/10 29/3/10
f 14/4/10 15/1/10 31/1/10 30/4/10
f 15/1/10 16/2/10 32/2/10 31/1/10
f 16/2/10 9/7/10 25/7/10 32/2/10
