# Blender 4.0.2
# www.blender.org
mtllib shape15.mtl
o Plane
v 0.187594 -0.794659 0.577343
v 0.607058 -0.794658 0.000000
v -0.491120 -0.794658 0.356819
v -0.491120 -0.794658 -0.356819
v 0.187594 -0.794659 -0.577343
v 0.982247 -0.187594 0.000000
v 0.303532 -0.187596 0.934171
v -0.794656 -0.187595 0.577347
v -0.794656 -0.187595 -0.577347
v 0.303532 -0.187596 -0.934171
v 0.794656 0.187595 0.577347
v -0.303532 0.187596 0.934171
v -0.982247 0.187594 -0.000000
v -0.303532 0.187596 -0.934171
v 0.794656 0.187595 -0.577347
v 0.491120 0.794658 0.356819
v -0.187594 0.794659 0.577343
v -0.607058 0.794658 -0.000000
v -0.187594 0.794659 -0.577343
v 0.491120 0.794658 -0.356819
v 0.186027 -0.794659 0.572519
v -0.487017 -0.794658 0.353838
v -0.487017 -0.794658 -0.353838
v 0.186027 -0.794659 -0.572519
v 0.601986 -0.794658 0.000000
v 0.190831 -0.790989 0.576010
v 0.606790 -0.790988 0.003490
v 0.978845 -0.188996 0.003490
v 0.792821 0.183059 0.576014
v 0.305800 -0.188998 0.929857
v 0.184192 -0.790989 0.578167
v 0.299161 -0.188998 0.932014
v -0.302831 0.183060 0.932014
v -0.789852 -0.188997 0.578171
v -0.488852 -0.790988 0.359485
v -0.492955 -0.790988 0.353838
v -0.793955 -0.188997 0.572523
v -0.979979 0.183058 -0.000000
v -0.793955 -0.188997 -0.572523
v -0.492955 -0.790988 -0.353838
v -0.488852 -0.790988 -0.359485
v -0.789852 -0.188997 -0.578171
v -0.302831 0.183059 -0.932014
v 0.299161 -0.188998 -0.932014
v 0.184192 -0.790989 -0.578167
v 0.606790 -0.790988 -0.003490
v 0.190831 -0.790989 -0.576010
v 0.305800 -0.188998 -0.929857
v 0.792821 0.183058 -0.576014
v 0.978845 -0.188996 -0.003490
v 0.302831 -0.183059 0.932014
v 0.789852 0.188997 0.578171
v 0.488852 0.790988 0.359485
v -0.184192 0.790989 0.578167
v -0.299161 0.188998 0.932014
v -0.792821 -0.183058 0.576014
v -0.305800 0.188998 0.929857
v -0.190831 0.790989 0.576010
v -0.606790 0.790988 0.003490
v -0.978845 0.188996 0.003490
v -0.792821 -0.183059 -0.576014
v -0.978845 0.188996 -0.003490
v -0.606790 0.790988 -0.003490
v -0.190831 0.790989 -0.576010
v -0.305800 0.188998 -0.929857
v 0.302831 -0.183060 -0.932014
v -0.299161 0.188998 -0.932014
v -0.184192 0.790989 -0.578167
v 0.488852 0.790988 -0.359485
v 0.789852 0.188997 -0.578171
v 0.979979 -0.183058 0.000000
v 0.793955 0.188997 -0.572523
v 0.492955 0.790988 -0.353838
v 0.492955 0.790988 0.353838
v 0.793955 0.188997 0.572523
v 0.487017 0.794658 0.353838
v 0.487017 0.794658 -0.353838
v -0.186027 0.794659 -0.572519
v -0.601986 0.794658 -0.000000
v -0.186027 0.794659 0.572519
v 0.186027 -0.794659 0.572519
v -0.487017 -0.794658 0.353838
v -0.487017 -0.794658 -0.353838
v 0.186027 -0.794659 -0.572519
v 0.601986 -0.794658 0.000000
v 0.190831 -0.790989 0.576010
v 0.606790 -0.790988 0.003490
v 0.978845 -0.188996 0.003490
v 0.792821 0.183059 0.576014
v 0.305800 -0.188998 0.929857
v 0.184192 -0.790989 0.578167
v 0.299161 -0.188998 0.932014
v -0.302831 0.183060 0.932014
v -0.789852 -0.188997 0.578171
v -0.488852 -0.790988 0.359485
v -0.492955 -0.790988 0.353838
v -0.793955 -0.188997 0.572523
v -0.979979 0.183058 -0.000000
v -0.793955 -0.188997 -0.572523
v -0.492955 -0.790988 -0.353838
v -0.488852 -0.790988 -0.359485
v -0.789852 -0.188997 -0.578171
v -0.302831 0.183059 -0.932014
v 0.299161 -0.188998 -0.932014
v 0.184192 -0.790989 -0.578167
v 0.606790 -0.790988 -0.003490
v 0.190831 -0.790989 -0.576010
v 0.305800 -0.188998 -0.929857
v 0.792821 0.183058 -0.576014
v 0.978845 -0.188996 -0.003490
v 0.302831 -0.183059 0.932014
v 0.789852 0.188997 0.578171
v 0.488852 0.790988 0.359485
v -0.184192 0.790989 0.578167
v -0.299161 0.188998 0.932014
v -0.792821 -0.183058 0.576014
v -0.305800 0.188998 0.929857
v -0.190831 0.790989 0.576010
v -0.606790 0.790988 0.003490
v -0.978845 0.188996 0.003490
v -0.792821 -0.183059 -0.576014
v -0.978845 0.188996 -0.003490
v -0.606790 0.790988 -0.003490
v -0.190831 0.790989 -0.576010
v -0.305800 0.188998 -0.929857
v 0.302831 -0.183060 -0.932014
v -0.299161 0.188998 -0.932014
v -0.184192 0.790989 -0.578167
v 0.488852 0.790988 -0.359485
v 0.789852 0.188997 -0.578171
v 0.979979 -0.183058 0.000000
v 0.793955 0.188997 -0.572523
v 0.492955 0.790988 -0.353838
v 0.492955 0.790988 0.353838
v 0.793955 0.188997 0.572523
v 0.487017 0.794658 0.353838
v 0.487017 0.794658 -0.353838
v -0.186027 0.794659 -0.572519
v -0.601986 0.794658 -0.000000
v -0.186027 0.794659 0.572519
v 0.000001 -1.840708 0.000000
v 0.000001 -1.840708 0.000000
v 0.000001 -1.840708 0.000000
v 0.000001 -1.840708 0.000000
v 0.000001 -1.840708 0.000000
v 1.331946 -0.823190 0.967712
v 1.331946 -0.823190 0.967712
v 1.331946 -0.823190 0.967712
v 1.331946 -0.823190 0.967712
v 1.331946 -0.823190 0.967712
v -0.508757 -0.823192 1.565793
v -0.508757 -0.823192 1.565793
v -0.508757 -0.823192 1.565793
v -0.508757 -0.823192 1.565793
v -0.508757 -0.823192 1.565793
v -1.646374 -0.823192 0.000000
v -1.646374 -0.823192 0.000000
v -1.646374 -0.823192 0.000000
v -1.646374 -0.823192 0.000000
v -1.646374 -0.823192 0.000000
v -0.508757 -0.823192 -1.565792
v -0.508757 -0.823192 -1.565792
v -0.508757 -0.823192 -1.565792
v -0.508757 -0.823192 -1.565792
v -0.508757 -0.823192 -1.565792
v 1.331947 -0.823190 -0.967712
v 1.331947 -0.823190 -0.967712
v 1.331947 -0.823190 -0.967712
v 1.331947 -0.823191 -0.967712
v 1.331947 -0.823190 -0.967712
v 0.508757 0.823192 1.565792
v 0.508757 0.823192 1.565792
v 0.508757 0.823192 1.565792
v 0.508757 0.823192 1.565792
v 0.508757 0.823192 1.565792
v -1.331947 0.823191 0.967712
v -1.331947 0.823190 0.967712
v -1.331947 0.823190 0.967712
v -1.331947 0.823190 0.967712
v -1.331947 0.823190 0.967712
v -1.331946 0.823190 -0.967712
v -1.331946 0.823190 -0.967712
v -1.331946 0.823190 -0.967712
v -1.331946 0.823190 -0.967712
v -1.331946 0.823190 -0.967712
v 0.508757 0.823192 -1.565793
v 0.508757 0.823192 -1.565793
v 0.508757 0.823192 -1.565793
v 0.508757 0.823192 -1.565793
v 0.508757 0.823192 -1.565793
v 1.646374 0.823192 -0.000000
v 1.646374 0.823192 -0.000000
v 1.646374 0.823192 -0.000000
v 1.646374 0.823192 -0.000000
v 1.646374 0.823192 -0.000000
v -0.000001 1.840708 -0.000000
v -0.000001 1.840708 -0.000000
v -0.000001 1.840708 -0.000000
v -0.000001 1.840708 -0.000000
v -0.000001 1.840708 -0.000000
vn -0.0000 -0.0000 1.0000
vn -0.0000 -0.0000 -0.0000
vn -0.0000 -1.0000 -0.0000
vn 0.7236 -0.4472 0.5257
vn -0.2764 -0.4472 0.8506
vn -0.2764 -0.4472 0.8507
vn -0.8944 -0.4472 -0.0000
vn -0.2764 -0.4472 -0.8507
vn -0.2764 -0.4472 -0.8506
vn 0.7236 -0.4472 -0.5257
vn 0.2764 0.4472 0.8507
vn 0.2764 0.4472 0.8506
vn -0.7236 0.4472 0.5257
vn -0.7236 0.4472 -0.5257
vn 0.2764 0.4472 -0.8507
vn 0.2764 0.4472 -0.8506
vn 0.8944 0.4472 -0.0000
vn -0.0000 1.0000 -0.0000
vn -0.0226 -0.9996 0.0164
vn 0.7055 -0.4672 0.5329
vn 0.7420 -0.4393 -0.5063
vn 0.7055 -0.4672 -0.5329
vn 0.2888 0.4672 -0.8356
vn 0.8979 0.4393 0.0265
vn -0.7248 0.4672 -0.5063
vn -0.0086 0.9996 0.0265
vn 0.0086 -0.9996 0.0265
vn -0.7420 0.4393 -0.5063
vn -0.8979 -0.4393 0.0265
vn 0.7248 -0.4672 -0.5063
vn 0.2522 0.4393 -0.8622
vn 0.7108 -0.4393 0.5493
vn -0.2801 -0.4221 0.8622
vn -0.0279 0.9996 -0.0000
vn -0.3027 -0.4393 -0.8458
vn 0.7334 -0.4221 0.5329
vn 0.2522 0.4393 0.8622
vn 0.2576 0.4672 -0.8458
vn -0.9066 -0.4221 -0.0000
vn 0.9066 0.4221 -0.0000
vn 0.8840 0.4672 0.0164
vn -0.2801 -0.4221 -0.8622
vn 0.2801 0.4221 0.8622
vn 0.7248 -0.4672 0.5063
vn 0.7334 -0.4221 -0.5329
vn 0.2801 0.4221 -0.8622
vn -0.2888 -0.4672 0.8356
vn -0.0226 -0.9996 -0.0164
vn -0.7334 0.4221 -0.5329
vn 0.8979 0.4393 -0.0265
vn -0.3027 -0.4393 0.8458
vn -0.7334 0.4221 0.5329
vn -0.0086 0.9996 -0.0265
vn 0.7108 -0.4393 -0.5493
vn -0.7420 0.4393 0.5063
vn 0.8840 0.4672 -0.0164
vn -0.2576 -0.4672 0.8458
vn 0.2576 0.4672 0.8458
vn -0.8840 -0.4672 -0.0164
vn 0.7420 -0.4393 0.5063
vn 0.3027 0.4393 0.8458
vn 0.0086 -0.9996 -0.0265
vn 0.0226 0.9996 -0.0164
vn 0.2888 0.4672 0.8356
vn -0.7108 0.4393 -0.5493
vn -0.7248 0.4672 0.5063
vn -0.8840 -0.4672 0.0164
vn -0.8979 -0.4393 -0.0265
vn -0.2576 -0.4672 -0.8458
vn -0.2522 -0.4393 0.8622
vn -0.7108 0.4393 0.5493
vn 0.0279 -0.9996 -0.0000
vn 0.0226 0.9996 0.0164
vn -0.7055 0.4672 0.5329
vn 0.3027 0.4393 -0.8458
vn -0.7055 0.4672 -0.5329
vn -0.2888 -0.4672 -0.8356
vn -0.2522 -0.4393 -0.8622
s 0
f 52//1 53//1 113//1 112//1
f 79//1 80//1 140//1 139//1
f 55//1 51//1 111//1 115//1
f 78//1 79//1 139//1 138//1
f 39//1 40//1 100//1 99//1
f 51//1 52//1 112//1 111//1
f 77//1 78//1 138//1 137//1
f 38//1 39//1 99//1 98//1
f 80//1 76//1 136//1 140//1
f 37//1 38//1 98//1 97//1
f 64//1 65//1 125//1 124//1
f 76//2 77//2 137//2 136//2
f 1//3 3//3 22//3 21//3
f 3//3 4//3 23//3 22//3
f 4//3 5//3 24//3 23//3
f 5//3 2//3 25//3 24//3
f 2//3 1//3 21//3 25//3
f 1//4 2//4 27//4 26//4
f 2//4 6//4 28//4 27//4
f 6//4 11//4 29//4 28//4
f 11//4 7//4 30//4 29//4
f 7//4 1//4 26//4 30//4
f 1//5 7//5 32//5 31//5
f 7//6 12//6 33//6 32//6
f 12//6 8//6 34//6 33//6
f 8//6 3//6 35//6 34//6
f 3//6 1//6 31//6 35//6
f 3//7 8//7 37//7 36//7
f 8//7 13//7 38//7 37//7
f 13//7 9//7 39//7 38//7
f 9//7 4//7 40//7 39//7
f 4//7 3//7 36//7 40//7
f 4//8 9//8 42//8 41//8
f 9//8 14//8 43//8 42//8
f 14//9 10//9 44//9 43//9
f 10//9 5//9 45//9 44//9
f 5//8 4//8 41//8 45//8
f 2//10 5//10 47//10 46//10
f 5//10 10//10 48//10 47//10
f 10//10 15//10 49//10 48//10
f 15//10 6//10 50//10 49//10
f 6//10 2//10 46//10 50//10
f 7//11 11//11 52//11 51//11
f 11//11 16//11 53//11 52//11
f 16//11 17//11 54//11 53//11
f 17//12 12//12 55//12 54//12
f 12//11 7//11 51//11 55//11
f 8//13 12//13 57//13 56//13
f 12//13 17//13 58//13 57//13
f 17//13 18//13 59//13 58//13
f 18//13 13//13 60//13 59//13
f 13//13 8//13 56//13 60//13
f 9//14 13//14 62//14 61//14
f 13//14 18//14 63//14 62//14
f 18//14 19//14 64//14 63//14
f 19//14 14//14 65//14 64//14
f 14//14 9//14 61//14 65//14
f 10//15 14//15 67//15 66//15
f 14//16 19//16 68//16 67//16
f 19//15 20//15 69//15 68//15
f 20//15 15//15 70//15 69//15
f 15//15 10//15 66//15 70//15
f 6//17 15//17 72//17 71//17
f 15//17 20//17 73//17 72//17
f 20//17 16//17 74//17 73//17
f 16//17 11//17 75//17 74//17
f 11//17 6//17 71//17 75//17
f 16//18 20//18 77//18 76//18
f 20//18 19//18 78//18 77//18
f 19//18 18//18 79//18 78//18
f 18//18 17//18 80//18 79//18
f 17//18 16//18 76//18 80//18
f 106//19 107//19 167//19 166//19
f 135//20 131//20 191//20 195//20
f 104//21 105//21 165//21 164//21
f 131//22 132//22 192//22 191//22
f 103//23 104//23 164//23 163//23
f 129//24 130//24 190//24 189//24
f 102//25 103//25 163//25 162//25
f 128//26 129//26 189//26 188//26
f 105//27 101//27 161//27 165//27
f 127//28 128//28 188//28 187//28
f 101//29 102//29 162//29 161//29
f 130//30 126//30 186//30 190//30
f 26//1 27//1 87//1 86//1
f 53//1 54//1 114//1 113//1
f 30//1 26//1 86//1 90//1
f 66//1 67//1 127//1 126//1
f 54//1 55//1 115//1 114//1
f 27//1 28//1 88//1 87//1
f 70//1 66//1 126//1 130//1
f 28//1 29//1 89//1 88//1
f 67//1 68//1 128//1 127//1
f 41//1 42//1 102//1 101//1
f 29//1 30//1 90//1 89//1
f 68//1 69//1 129//1 128//1
f 45//1 41//1 101//1 105//1
f 69//1 70//1 130//1 129//1
f 42//1 43//1 103//1 102//1
f 43//1 44//1 104//1 103//1
f 56//1 57//1 117//1 116//1
f 44//1 45//1 105//1 104//1
f 60//1 56//1 116//1 120//1
f 57//1 58//1 118//1 117//1
f 31//1 32//1 92//1 91//1
f 58//1 59//1 119//1 118//1
f 35//1 31//1 91//1 95//1
f 71//1 72//1 132//1 131//1
f 59//1 60//1 120//1 119//1
f 32//1 33//1 93//1 92//1
f 75//1 71//1 131//1 135//1
f 33//1 34//1 94//1 93//1
f 72//1 73//1 133//1 132//1
f 46//1 47//1 107//1 106//1
f 34//1 35//1 95//1 94//1
f 73//2 74//2 134//2 133//2
f 50//1 46//1 106//1 110//1
f 74//1 75//1 135//1 134//1
f 47//1 48//1 108//1 107//1
f 21//1 22//1 82//1 81//1
f 48//1 49//1 109//1 108//1
f 25//1 21//1 81//1 85//1
f 61//1 62//1 122//1 121//1
f 49//1 50//1 110//1 109//1
f 22//2 23//2 83//2 82//2
f 65//1 61//1 121//1 125//1
f 23//1 24//1 84//1 83//1
f 62//1 63//1 123//1 122//1
f 36//1 37//1 97//1 96//1
f 24//1 25//1 85//1 84//1
f 63//1 64//1 124//1 123//1
f 40//2 36//2 96//2 100//2
f 141//1 142//1 143//1 144//1 145//1
f 146//1 147//1 148//1 149//1 150//1
f 151//1 152//1 153//1 154//1 155//1
f 156//1 157//2 158//2 159//2 160//1
f 161//1 162//1 163//1 164//1 165//1
f 166//1 167//1 168//1 169//1 170//1
f 171//1 172//1 173//1 174//1 175//1
f 176//1 177//1 178//1 179//1 180//1
f 181//1 182//1 183//1 184//1 185//1
f 186//1 187//1 188//1 189//1 190//1
f 191//2 192//2 193//1 194//1 195//2
f 196//1 197//1 198//1 199//1 200//1
f 132//31 133//31 193//31 192//31
f 110//32 106//32 166//32 170//32
f 81//33 82//33 142//33 141//33
f 133//34 134//34 194//34 193//34
f 107//35 108//35 168//35 167//35
f 85//36 81//36 141//36 145//36
f 134//37 135//37 195//37 194//37
f 108//38 109//38 169//38 168//38
f 82//39 83//39 143//39 142//39
f 136//40 137//40 197//40 196//40
f 109//41 110//41 170//41 169//41
f 83//42 84//42 144//42 143//42
f 140//43 136//43 196//43 200//43
f 111//44 112//44 172//44 171//44
f 84//45 85//45 145//45 144//45
f 137//46 138//46 198//46 197//46
f 115//47 111//47 171//47 175//47
f 86//48 87//48 147//48 146//48
f 138//49 139//49 199//49 198//49
f 112//50 113//50 173//50 172//50
f 90//51 86//51 146//51 150//51
f 139//52 140//52 200//52 199//52
f 113//53 114//53 174//53 173//53
f 87//54 88//54 148//54 147//54
f 114//55 115//55 175//55 174//55
f 88//56 89//56 149//56 148//56
f 116//57 117//57 177//57 176//57
f 89//58 90//58 150//58 149//58
f 120//59 116//59 176//59 180//59
f 91//60 92//60 152//60 151//60
f 117//61 118//61 178//61 177//61
f 95//62 91//62 151//62 155//62
f 118//63 119//63 179//63 178//63
f 92//64 93//64 153//64 152//64
f 119//65 120//65 180//65 179//65
f 93//66 94//66 154//66 153//66
f 121//67 122//67 182//67 181//67
f 94//68 95//68 155//68 154//68
f 125//69 121//69 181//69 185//69
f 96//70 97//70 157//70 156//70
f 122//71 123//71 183//71 182//71
f 100//72 96//72 156//72 160//72
f 123//73 124//73 184//73 183//73
f 97//74 98//74 158//74 157//74
f 124//75 125//75 185//75 184//75
f 98//76 99//76 159//76 158//76
f 126//77 127//77 187//77 186//77
f 99//78 100//78 160//78 159//78
