# Blender 4.0.2
# www.blender.org
mtllib shape2.mtl
o Plane
v -0.000000 1.000000 0.000000
v 0.866025 0.000000 -0.500000
v -0.000000 0.000000 -1.000000
v -0.866025 0.000000 -0.500000
v -0.866025 0.000000 0.500000
v -0.000000 0.000000 1.000000
v 0.866025 0.000000 0.500000
v -0.000000 -1.000000 0.000000
vn 0.7559 0.6547 -0.0000
vn 0.3780 0.6547 -0.6547
vn -0.3780 0.6547 -0.6547
vn -0.7559 0.6547 -0.0000
vn -0.3780 0.6547 0.6547
vn 0.3780 0.6547 0.6547
vn 0.7559 -0.6547 -0.0000
vn 0.3780 -0.6547 -0.6547
vn -0.3780 -0.6547 -0.6547
vn -0.7559 -0.6547 -0.0000
vn -0.3780 -0.6547 0.6547
vn 0.3780 -0.6547 0.6547
s 0
usemtl 
f 1//1 7//1 2//1
f 1//2 2//2 3//2
f 1//3 3//3 4//3
f 1//4 4//4 5//4
f 1//5 5//5 6//5
f 1//6 6//6 7//6
f 2//7 7//7 8//7
f 2//8 8//8 3//8
f 3//9 8//9 4//9
f 4//10 8//10 5//10
f 5//11 8//11 6//11
f 6//12 8//12 7//12
