# Blender 4.0.2
# www.blender.org
mtllib shape16.mtl
o Plane
v 0.000000 -1.000000 0.000000
v 0.000000 0.000000 1.000000
v 0.000000 1.000000 -0.000000
v 0.000000 -0.000000 -1.000000
v -1.000000 0.000000 0.000000
v 1.000000 0.000000 0.000000
v 0.000000 -1.000000 0.000000
v 0.000000 0.000000 1.000000
v 0.000000 1.000000 -0.000000
v 0.000000 -0.000000 -1.000000
v -1.000000 0.000000 0.000000
v 1.000000 0.000000 0.000000
v 0.000000 -1.000000 0.000000
v 0.000000 0.000000 1.000000
v -1.000000 0.000000 0.000000
v 0.000000 -1.000000 0.000000
v 1.000000 0.000000 0.000000
v 0.000000 0.000000 1.000000
v 0.000000 -1.000000 0.000000
v -1.000000 0.000000 0.000000
v 0.000000 -0.000000 -1.000000
v 0.000000 -1.000000 0.000000
v 0.000000 -0.000000 -1.000000
v 1.000000 0.000000 0.000000
v 0.000000 0.000000 1.000000
v 0.000000 1.000000 -0.000000
v -1.000000 0.000000 0.000000
v 0.000000 0.000000 1.000000
v 1.000000 0.000000 0.000000
v 0.000000 1.000000 -0.000000
v 0.000000 1.000000 -0.000000
v 0.000000 -0.000000 -1.000000
v -1.000000 0.000000 0.000000
v 0.000000 1.000000 -0.000000
v 1.000000 0.000000 0.000000
v 0.000000 -0.000000 -1.000000
v -1.591658 -1.591658 1.591659
v -1.591658 -1.591658 1.591659
v -1.591658 -1.591658 1.591659
v 1.591658 -1.591658 1.591659
v 1.591658 -1.591658 1.591659
v 1.591658 -1.591658 1.591659
v -1.591658 -1.591659 -1.591658
v -1.591658 -1.591659 -1.591658
v -1.591658 -1.591659 -1.591658
v 1.591658 -1.591659 -1.591658
v 1.591658 -1.591659 -1.591658
v 1.591658 -1.591659 -1.591658
v -1.591658 1.591659 1.591658
v -1.591658 1.591659 1.591658
v -1.591658 1.591659 1.591658
v 1.591658 1.591659 1.591658
v 1.591658 1.591659 1.591658
v 1.591658 1.591659 1.591658
v -1.591658 1.591658 -1.591659
v -1.591658 1.591658 -1.591659
v -1.591658 1.591658 -1.591659
v 1.591658 1.591658 -1.591659
v 1.591658 1.591658 -1.591659
v 1.591658 1.591658 -1.591659
vn 0.5774 0.5774 -0.5774
vn -0.5774 0.5774 -0.5774
vn 0.5774 0.5774 0.5774
vn -0.5774 0.5774 0.5774
vn 0.5774 -0.5774 -0.5774
vn -0.5774 -0.5774 -0.5774
vn 0.5774 -0.5774 0.5774
vn -0.5774 -0.5774 0.5774
vn -0.5076 0.5076 0.6962
vn -0.6962 -0.5076 0.5076
vn 0.5076 -0.6962 -0.5076
vn -0.5076 0.6962 -0.5076
vn 0.6962 0.5076 -0.5076
vn 0.5076 -0.5076 -0.6962
vn -0.6962 0.5076 -0.5076
vn 0.6962 -0.5076 -0.5076
vn -0.0000 -0.0000 1.0000
vn 0.6962 -0.5076 0.5076
vn 0.5076 -0.6962 0.5076
vn 0.5076 0.6962 0.5076
vn -0.5076 -0.6962 -0.5076
vn -0.5076 -0.5076 -0.6962
vn -0.6962 0.5076 0.5076
vn 0.6962 0.5076 0.5076
vn -0.5076 0.6962 0.5076
vn 0.5076 0.5076 -0.6962
vn -0.5076 -0.6962 0.5076
vn -0.6962 -0.5076 -0.5076
vn -0.5076 0.5076 -0.6962
vn 0.5076 -0.5076 0.6962
vn -0.5076 -0.5076 0.6962
vn 0.5076 0.5076 0.6962
vn 0.5076 0.6962 -0.5076
s 0
f 1//1 5//1 2//1
f 1//2 2//2 6//2
f 1//3 4//3 5//3
f 1//4 6//4 4//4
f 2//5 5//5 3//5
f 2//6 3//6 6//6
f 3//7 5//7 4//7
f 3//8 4//8 6//8
f 33//9 31//9 55//9 57//9
f 18//10 16//10 40//10 42//10
f 35//11 36//11 60//11 59//11
f 20//12 21//12 45//12 44//12
f 31//13 32//13 56//13 55//13
f 16//14 17//14 41//14 40//14
f 36//15 34//15 58//15 60//15
f 21//16 19//16 43//16 45//16
f 7//17 8//17 14//17 13//17
f 8//17 11//17 15//17 14//17
f 11//17 7//17 13//17 15//17
f 7//17 12//17 17//17 16//17
f 12//17 8//17 18//17 17//17
f 8//17 7//17 16//17 18//17
f 7//17 11//17 20//17 19//17
f 11//17 10//17 21//17 20//17
f 10//17 7//17 19//17 21//17
f 7//17 10//17 23//17 22//17
f 10//17 12//17 24//17 23//17
f 12//17 7//17 22//17 24//17
f 8//17 9//17 26//17 25//17
f 9//17 11//17 27//17 26//17
f 11//17 8//17 25//17 27//17
f 8//17 12//17 29//17 28//17
f 12//17 9//17 30//17 29//17
f 9//17 8//17 28//17 30//17
f 9//17 10//17 32//17 31//17
f 10//17 11//17 33//17 32//17
f 11//17 9//17 31//17 33//17
f 9//17 12//17 35//17 34//17
f 12//17 10//17 36//17 35//17
f 10//17 9//17 34//17 36//17
f 37//17 38//17 39//17
f 40//17 41//17 42//17
f 43//17 44//17 45//17
f 46//17 47//17 48//17
f 49//17 50//17 51//17
f 52//17 53//17 54//17
f 55//17 56//17 57//17
f 58//17 59//17 60//17
f 13//18 14//18 38//18 37//18
f 28//19 29//19 53//19 52//19
f 17//20 18//20 42//20 41//20
f 32//21 33//21 57//21 56//21
f 15//22 13//22 37//22 39//22
f 30//23 28//23 52//23 54//23
f 25//24 26//24 50//24 49//24
f 14//25 15//25 39//25 38//25
f 29//26 30//26 54//26 53//26
f 27//27 25//27 49//27 51//27
f 22//28 23//28 47//28 46//28
f 26//29 27//29 51//29 50//29
f 24//30 22//30 46//30 48//30
f 19//31 20//31 44//31 43//31
f 34//32 35//32 59//32 58//32
f 23//33 24//33 48//33 47//33
