# Blender 4.0.2
# www.blender.org
mtllib shape5.mtl
o Plane
v 0.092818 -0.953826 0.285658
v 0.706047 -0.643913 0.294744
v -0.242997 -0.953826 0.176547
v -0.242997 -0.953826 -0.176547
v 0.092818 -0.953826 -0.285658
v 0.891684 -0.343549 0.294744
v -0.004774 -0.343550 0.939122
v -0.894636 -0.343548 0.285660
v -0.548137 -0.343549 -0.762574
v 0.555869 -0.343550 -0.756956
v 0.798868 -0.157913 0.580408
v -0.305138 -0.157913 0.939124
v -0.987453 -0.157911 0.000000
v -0.305138 -0.157913 -0.939124
v 0.798868 -0.157913 -0.580408
v 0.397954 0.643914 0.653458
v -0.498504 0.643914 0.580404
v -0.706047 0.643913 -0.294744
v 0.062136 0.643914 -0.762571
v 0.744453 0.643911 -0.176548
v 0.242997 0.953826 -0.176547
v 0.491121 0.794658 -0.356819
v 0.397954 0.643914 -0.653458
v -0.092818 0.953826 -0.285658
v -0.187594 0.794658 -0.577344
v -0.498504 0.643914 -0.580404
v -0.300361 0.953826 0.000000
v -0.607058 0.794657 0.000000
v -0.706047 0.643913 0.294744
v -0.092818 0.953826 0.285658
v -0.187594 0.794659 0.577344
v 0.062136 0.643914 0.762571
v 0.242997 0.953826 0.176547
v 0.491121 0.794658 0.356819
v 0.744453 0.643911 0.176548
v 0.894636 0.343548 -0.285660
v 0.794655 0.187595 -0.577348
v 0.548137 0.343549 -0.762574
v 0.004774 0.343550 -0.939122
v -0.303533 0.187595 -0.934171
v -0.555869 0.343550 -0.756956
v -0.891684 0.343549 -0.294745
v -0.982247 0.187594 0.000000
v -0.891684 0.343549 0.294744
v -0.555869 0.343550 0.756956
v -0.303533 0.187595 0.934171
v 0.004774 0.343550 0.939122
v 0.548137 0.343549 0.762574
v 0.794655 0.187595 0.577348
v 0.894636 0.343548 0.285660
v 0.305138 0.157913 -0.939124
v 0.303533 -0.187595 -0.934171
v -0.004774 -0.343550 -0.939122
v -0.798868 0.157913 -0.580408
v -0.794656 -0.187595 -0.577348
v -0.894636 -0.343548 -0.285660
v -0.798868 0.157913 0.580408
v -0.794655 -0.187595 0.577348
v -0.548137 -0.343549 0.762574
v 0.305138 0.157913 0.939124
v 0.303533 -0.187595 0.934171
v 0.555869 -0.343550 0.756956
v 0.987453 0.157911 0.000000
v 0.982247 -0.187594 0.000000
v 0.891684 -0.343549 -0.294744
v 0.498504 -0.643914 -0.580404
v 0.187594 -0.794658 -0.577344
v -0.062136 -0.643914 -0.762571
v -0.397954 -0.643914 -0.653458
v -0.491121 -0.794658 -0.356819
v -0.744453 -0.643911 -0.176548
v -0.744453 -0.643911 0.176548
v -0.491121 -0.794658 0.356819
v -0.397954 -0.643914 0.653458
v 0.706047 -0.643913 -0.294744
v 0.607058 -0.794657 0.000000
v 0.300361 -0.953826 0.000000
v -0.062136 -0.643914 0.762571
v 0.187594 -0.794658 0.577344
v 0.498503 -0.643914 0.580404
vn -0.0000 -1.0000 -0.0000
vn 0.7236 -0.4472 0.5257
vn -0.2764 -0.4472 0.8506
vn -0.8944 -0.4472 -0.0000
vn -0.2764 -0.4472 -0.8506
vn 0.7236 -0.4472 -0.5257
vn 0.2764 0.4472 0.8506
vn -0.7236 0.4472 0.5257
vn -0.7236 0.4472 -0.5257
vn 0.2764 0.4472 -0.8506
vn 0.8944 0.4472 -0.0000
vn -0.0000 1.0000 -0.0000
vn -0.1625 -0.8507 0.5000
vn 0.4253 -0.8507 0.3090
vn 0.2629 -0.5257 0.8090
vn 0.8506 -0.5257 -0.0000
vn 0.4253 -0.8507 -0.3090
vn -0.5257 -0.8507 -0.0000
vn -0.6882 -0.5257 0.5000
vn -0.1625 -0.8507 -0.5000
vn -0.6882 -0.5257 -0.5000
vn 0.2629 -0.5257 -0.8090
vn 0.9511 -0.0000 0.3090
vn 0.9511 -0.0000 -0.3090
vn -0.0000 -0.0000 1.0000
vn 0.5878 -0.0000 0.8090
vn -0.9511 -0.0000 0.3090
vn -0.5878 -0.0000 0.8090
vn -0.5878 -0.0000 -0.8090
vn -0.9511 -0.0000 -0.3090
vn 0.5878 -0.0000 -0.8090
vn -0.0000 -0.0000 -1.0000
vn 0.6882 0.5257 0.5000
vn -0.2629 0.5257 0.8090
vn -0.8506 0.5257 -0.0000
vn -0.2629 0.5257 -0.8090
vn 0.6882 0.5257 -0.5000
vn 0.1625 0.8507 0.5000
vn 0.5257 0.8507 -0.0000
vn -0.4253 0.8507 0.3090
vn -0.4253 0.8507 -0.3090
vn 0.1625 0.8507 -0.5000
s 0
usemtl 
f 1//1 3//1 4//1 5//1 77//1
f 2//2 6//2 11//2 62//2 80//2
f 7//3 12//3 59//3 74//3 78//3
f 8//4 13//4 56//4 71//4 72//4
f 9//5 14//5 53//5 68//5 69//5
f 10//6 15//6 65//6 75//6 66//6
f 16//7 32//7 47//7 60//7 48//7
f 17//8 29//8 44//8 57//8 45//8
f 18//9 26//9 41//9 54//9 42//9
f 19//10 23//10 38//10 51//10 39//10
f 20//11 35//11 50//11 63//11 36//11
f 21//12 24//12 27//12 30//12 33//12
f 1//13 79//13 78//13 74//13 73//13 3//13
f 1//14 77//14 76//14 2//14 80//14 79//14
f 7//15 78//15 79//15 80//15 62//15 61//15
f 2//16 76//16 75//16 65//16 64//16 6//16
f 5//17 67//17 66//17 75//17 76//17 77//17
f 3//18 73//18 72//18 71//18 70//18 4//18
f 8//19 72//19 73//19 74//19 59//19 58//19
f 4//20 70//20 69//20 68//20 67//20 5//20
f 9//21 69//21 70//21 71//21 56//21 55//21
f 10//22 66//22 67//22 68//22 53//22 52//22
f 6//23 64//23 63//23 50//23 49//23 11//23
f 15//24 37//24 36//24 63//24 64//24 65//24
f 7//25 61//25 60//25 47//25 46//25 12//25
f 11//26 49//26 48//26 60//26 61//26 62//26
f 8//27 58//27 57//27 44//27 43//27 13//27
f 12//28 46//28 45//28 57//28 58//28 59//28
f 9//29 55//29 54//29 41//29 40//29 14//29
f 13//30 43//30 42//30 54//30 55//30 56//30
f 10//31 52//31 51//31 38//31 37//31 15//31
f 14//32 40//32 39//32 51//32 52//32 53//32
f 16//33 48//33 49//33 50//33 35//33 34//33
f 17//34 45//34 46//34 47//34 32//34 31//34
f 18//35 42//35 43//35 44//35 29//35 28//35
f 19//36 39//36 40//36 41//36 26//36 25//36
f 20//37 36//37 37//37 38//37 23//37 22//37
f 16//38 34//38 33//38 30//38 31//38 32//38
f 20//39 22//39 21//39 33//39 34//39 35//39
f 17//40 31//40 30//40 27//40 28//40 29//40
f 18//41 28//41 27//41 24//41 25//41 26//41
f 19//42 25//42 24//42 21//42 22//42 23//42
